<svg width="15" height="15" viewBox="0 0 15 15" fill="none" xmlns="http://www.w3.org/2000/svg">
<path d="M9.72656 10.0312C9.44531 10.0312 9.1875 9.91406 9 9.70313C8.88281 9.5625 8.78906 9.39844 8.76563 9.21094C8.69531 8.8125 8.88281 8.39063 9.23438 8.17969L10.1016 7.66406L9.30469 6.46875L9.70313 6.21094L10.7578 7.80469L9.46875 8.57812C9.28125 8.69531 9.1875 8.90625 9.21094 9.11719C9.23438 9.21094 9.28125 9.30469 9.32812 9.375C9.49219 9.5625 9.77344 9.58594 10.0078 9.46875L11.7422 8.4375C11.9062 8.34375 12 8.17969 12 7.99219C12 7.875 11.9766 7.78125 11.9062 7.6875L10.2656 5.17969C10.2188 5.08594 10.0313 4.85156 9.72656 4.61719C9.49219 4.42969 8.88281 4.28906 8.50781 4.26563C8.32031 4.26563 7.42969 4.3125 6.04688 4.40625C5.71875 4.42969 5.4375 4.61719 5.32031 4.92188L4.59375 6.60938C4.54688 6.72656 4.54688 6.86719 4.61719 7.00781C4.66406 7.125 4.78125 7.24219 4.92188 7.28906C5.17969 7.38281 5.50781 7.24219 5.60156 6.98438L6.1875 5.39063H7.5V5.85938H6.53906L6.04688 7.14844C5.90625 7.52344 5.53125 7.80469 5.10938 7.80469C4.99219 7.80469 4.875 7.78125 4.75781 7.73438C4.5 7.64063 4.3125 7.45312 4.19531 7.21875C4.07813 6.98438 4.07813 6.70313 4.17188 6.46875L4.89844 4.75781C5.08594 4.28906 5.53125 3.98438 6.02344 3.96094C7.00781 3.89063 8.25 3.82031 8.53125 3.82031C8.95313 3.82031 9.70313 3.98438 10.0547 4.26563C10.3594 4.52344 10.5938 4.80469 10.6875 4.94531L12.3281 7.42969C12.4453 7.59375 12.4922 7.78125 12.4922 7.99219C12.4922 8.34375 12.3047 8.67188 12 8.83594L10.2656 9.86719C10.1016 9.98438 9.91406 10.0312 9.72656 10.0312Z" fill="white"/>
<path d="M2.22656 14.7656H2.20312C1.94531 14.7656 1.68749 14.6484 1.49999 14.4609C1.31249 14.2734 1.21874 14.0156 1.24218 13.7578C1.24218 13.5 1.35937 13.2422 1.54687 13.0547L2.85937 11.6953C2.55468 11.7891 2.24999 11.7422 1.99218 11.5547C1.73437 11.3672 1.57031 11.1094 1.52343 10.8047L1.19531 8.41407C1.12499 7.92188 1.31249 7.42969 1.68749 7.10157C2.06249 6.77344 2.55468 6.65626 3.04687 6.77344L4.82812 7.21876L4.68749 7.68751L2.90624 7.24219C2.57812 7.14844 2.22656 7.24219 1.99218 7.47657C1.73437 7.71094 1.61718 8.03907 1.66406 8.36719L1.99218 10.7344C2.01562 10.8984 2.10937 11.0625 2.24999 11.1563C2.39062 11.25 2.57812 11.2734 2.74218 11.2266C3.04687 11.1328 3.21093 10.8516 3.16406 10.5469L2.76562 8.32032L5.83593 9.23438L1.87499 13.3828C1.75781 13.4766 1.71093 13.6172 1.71093 13.7578C1.71093 13.8984 1.75781 14.0391 1.85156 14.1328C1.94531 14.2266 2.08593 14.2969 2.22656 14.2969C2.36718 14.2969 2.50781 14.25 2.60156 14.1563L6.42187 10.3828L6.74999 10.7109L2.90624 14.4844C2.71874 14.6719 2.48437 14.7656 2.22656 14.7656ZM3.35156 9.00001L3.60937 10.4531C3.63281 10.5938 3.63281 10.7578 3.60937 10.8984L4.96874 9.49219L3.35156 9.00001Z" fill="white"/>
<path d="M10.0781 14.7656C8.01562 14.7656 6.32812 13.0781 6.32812 11.0156C6.32812 8.95312 8.01562 7.26562 10.0781 7.26562C10.1719 7.26562 10.2422 7.26562 10.3125 7.26562L10.2891 7.73438C10.2188 7.73438 10.1484 7.73438 10.0781 7.73438C8.27344 7.73438 6.79688 9.21094 6.79688 11.0156C6.79688 12.8203 8.27344 14.2969 10.0781 14.2969C11.8828 14.2969 13.3594 12.8203 13.3594 11.0156C13.3594 9.98438 12.8906 9.04688 12.0937 8.41406L12.375 8.03906C13.2891 8.76562 13.8281 9.84375 13.8281 11.0156C13.8281 13.0781 12.1406 14.7656 10.0781 14.7656ZM11.4844 4.92188C10.1953 4.92188 9.14062 3.86719 9.14062 2.57812C9.14062 1.28906 10.1953 0.234375 11.4844 0.234375C12.7734 0.234375 13.8281 1.28906 13.8281 2.57812C13.8281 3.86719 12.7734 4.92188 11.4844 4.92188ZM11.4844 0.703125C10.4531 0.703125 9.60938 1.54688 9.60938 2.57812C9.60938 3.60938 10.4531 4.45312 11.4844 4.45312C12.5156 4.45312 13.3594 3.60938 13.3594 2.57812C13.3594 1.54688 12.5156 0.703125 11.4844 0.703125Z" fill="white"/>
<path d="M12.6562 11.25H12.1875V11.7188H12.6562V11.25Z" fill="white"/>
<path d="M11.0156 12.8906H10.5469V13.3594H11.0156V12.8906Z" fill="white"/>
<path d="M11.9531 12.1875H11.4844V12.6562H11.9531V12.1875Z" fill="white"/>
</svg>
