<svg width="16" height="13" viewBox="0 0 16 13" fill="none" xmlns="http://www.w3.org/2000/svg">
<g clip-path="url(#clip0_1_431)">
<path fill-rule="evenodd" clip-rule="evenodd" d="M3.15614 3.99307C3.06789 3.9028 2.94821 3.8521 2.82343 3.8521C2.69865 3.8521 2.57897 3.9028 2.49072 3.99307L0.137782 6.40047C0.0495602 6.49077 0 6.61321 0 6.74088C0 6.86855 0.0495602 6.991 0.137782 7.08129L5.78484 12.8591C5.87309 12.9493 5.99276 13 6.11755 13C6.24233 13 6.362 12.9493 6.45025 12.8591L15.862 3.22944C15.9502 3.13915 15.9998 3.0167 15.9998 2.88903C15.9998 2.76136 15.9502 2.63891 15.862 2.54862L13.5091 0.141215C13.4208 0.0509516 13.3012 0.000244141 13.1764 0.000244141C13.0516 0.000244141 12.9319 0.0509516 12.8437 0.141215L6.11755 7.02303L3.15614 3.99307Z" fill="#BCFA5C"/>
</g>
<defs>
<clipPath id="clip0_1_431">
<rect width="16" height="13" fill="white"/>
</clipPath>
</defs>
</svg>
