<svg width="24" height="21" viewBox="0 0 24 21" fill="none" xmlns="http://www.w3.org/2000/svg">
<path fill-rule="evenodd" clip-rule="evenodd" d="M7.5645 3.9375V3.94275C7.51453 3.94056 7.46447 3.94056 7.4145 3.94275C7.14249 3.9564 6.87989 4.03475 6.65501 4.16936C6.43014 4.30397 6.25151 4.48972 6.13838 4.7066C6.02525 4.92348 5.98191 5.16327 6.01304 5.40011C6.04416 5.63695 6.14857 5.86187 6.315 6.05063L10.1295 10.5013L6.315 14.9586C6.19701 15.0965 6.11121 15.2533 6.06251 15.4202C6.0138 15.5871 6.00314 15.7608 6.03114 15.9313C6.05914 16.1018 6.12524 16.2658 6.22568 16.414C6.32611 16.5621 6.45892 16.6915 6.6165 16.7947C6.93476 17.0033 7.33465 17.0926 7.7282 17.0431C7.92306 17.0186 8.1105 16.9608 8.27982 16.8729C8.44913 16.785 8.59701 16.6688 8.715 16.5309L12 12.6945L15.2865 16.5322C15.4021 16.6754 15.5493 16.7969 15.7195 16.8894C15.8897 16.982 16.0793 17.0437 16.2773 17.071C16.4752 17.0982 16.6773 17.0905 16.8718 17.0482C17.0662 17.006 17.249 16.93 17.4093 16.8249C17.5696 16.7197 17.7042 16.5875 17.8051 16.436C17.906 16.2846 17.9711 16.1169 17.9967 15.9431C18.0223 15.7692 18.0077 15.5926 17.9539 15.4237C17.9001 15.2548 17.8082 15.0971 17.6835 14.9599L13.872 10.5026L17.6835 6.05325C17.8617 5.85289 17.9696 5.61151 17.9939 5.3585C18.0182 5.10549 17.958 4.85174 17.8205 4.62813C17.6831 4.40453 17.4743 4.2207 17.2196 4.09902C16.9649 3.97733 16.6753 3.92304 16.386 3.94275C16.1691 3.95715 15.9583 4.01275 15.7684 4.10568C15.5785 4.19862 15.4141 4.32665 15.2865 4.48088L12 8.31862L8.7135 4.48088C8.58135 4.32023 8.40931 4.18788 8.2103 4.09376C8.01129 3.99965 7.7905 3.94622 7.5645 3.9375Z" fill="#CD0000"/>
</svg>
