<svg width="20" height="20" viewBox="0 0 20 20" fill="none" xmlns="http://www.w3.org/2000/svg">
<path d="M17.9344 17.1234C17.9331 17.1211 17.9313 17.119 17.9291 17.1174C17.927 17.1158 17.9245 17.1146 17.9219 17.1141C17.9219 17.1141 13.3609 12.5484 12.9047 12.0969C12.5 11.6797 2.03906 1.25 2.03906 1.25L1.81093 1.47969C1.81093 1.47969 1.01093 5.3625 8.70624 13.0766C9.02602 12.8995 9.37889 12.7904 9.74279 12.7559C10.1067 12.7215 10.4738 12.7626 10.8211 12.8765C11.1684 12.9905 11.4884 13.1749 11.7612 13.4182C12.0339 13.6615 12.2535 13.9585 12.4062 14.2906L15.9109 17.7953L16.5937 18.4656C16.6811 18.5549 16.7853 18.6259 16.9004 18.6743C17.0155 18.7227 17.1392 18.7477 17.2641 18.7477C17.3889 18.7477 17.5126 18.7227 17.6277 18.6743C17.7428 18.6259 17.8471 18.5549 17.9344 18.4656C18.1121 18.2875 18.212 18.0462 18.212 17.7945C18.212 17.5429 18.1121 17.3015 17.9344 17.1234ZM17.5922 18.125C17.5197 18.1977 17.4272 18.2472 17.3266 18.2673C17.2259 18.2874 17.1216 18.2772 17.0267 18.238C16.9319 18.1987 16.8508 18.1322 16.7937 18.0469C16.7367 17.9616 16.7062 17.8612 16.7062 17.7586C16.7062 17.6559 16.7367 17.5556 16.7937 17.4703C16.8508 17.3849 16.9319 17.3184 17.0267 17.2792C17.1216 17.24 17.2259 17.2298 17.3266 17.2499C17.4272 17.27 17.5197 17.3195 17.5922 17.3922C17.6888 17.4896 17.7431 17.6213 17.7431 17.7586C17.7431 17.8958 17.6888 18.0275 17.5922 18.125ZM10.3125 8.79531L11.25 9.74375C11.8203 9.3564 12.4934 9.14853 13.1828 9.14687H13.1953C13.8068 9.1645 14.4025 8.95143 14.8641 8.55C14.8984 8.52031 14.9766 8.43906 14.9766 8.43906L18.75 3.81562L18.3562 3.42187L13.8547 8.15625L13.3859 7.6875L18.0016 3.07187L17.6562 2.72031L13.0094 7.36406L12.6172 6.97187L17.2609 2.32656L16.875 1.94844L12.2344 6.58906L11.7656 6.12031L16.5453 1.60781L16.1891 1.25L11.7469 4.82031C11.7469 4.82031 11.6047 4.94219 11.5547 4.99219C11.2975 5.25017 11.1013 5.56241 10.9805 5.90604C10.8596 6.24966 10.8172 6.61597 10.8562 6.97812C10.8304 7.6199 10.6434 8.24484 10.3125 8.79531ZM6.82812 11.8297L1.54218 17.1187L1.52656 17.1312C1.35063 17.3092 1.25226 17.5495 1.25296 17.7997C1.25366 18.0499 1.35337 18.2896 1.53029 18.4666C1.70722 18.6435 1.94698 18.7432 2.19719 18.7439C2.44739 18.7446 2.68771 18.6462 2.86562 18.4703L2.87656 18.4562L8.12499 13.2047C7.66562 12.7349 7.23333 12.2766 6.82812 11.8297Z" fill="#FF0000"/>
</svg>
