<svg width="23" height="23" viewBox="0 0 23 23" fill="none" xmlns="http://www.w3.org/2000/svg">
<g clip-path="url(#clip0_1_540)">
<path fill-rule="evenodd" clip-rule="evenodd" d="M17.9688 2.96556C19.2082 3.2854 20.125 4.41132 20.125 5.74999V17.25C20.125 18.8366 18.8366 20.125 17.25 20.125H5.75C4.16336 20.125 2.875 18.8366 2.875 17.25V17.1594C3.10464 17.2184 3.34542 17.25 3.59375 17.25H15.0938C16.6804 17.25 17.9688 15.9616 17.9688 14.375V2.96556Z" fill="#AAABAF" fill-opacity="0.7"/>
<path d="M8.98494 9.64984C8.98494 9.33041 9.08798 9.01099 9.29406 8.68126C9.50014 8.35153 9.79896 8.08363 10.1905 7.86725C10.5821 7.65086 11.0354 7.54782 11.5609 7.54782C12.0452 7.54782 12.478 7.64056 12.8489 7.81573C13.2199 7.99089 13.5084 8.23819 13.7145 8.54731C13.9103 8.85643 14.0133 9.19646 14.0133 9.5571C14.0133 9.83531 13.9618 10.0929 13.8381 10.299C13.7248 10.5154 13.5908 10.7008 13.426 10.8554C13.2714 11.0203 12.9829 11.2779 12.5707 11.6488C12.4574 11.7519 12.3647 11.8446 12.2925 11.9167C12.2307 11.9991 12.1792 12.0713 12.1483 12.1331C12.1071 12.2052 12.0864 12.2671 12.0658 12.3392C12.0452 12.401 12.0246 12.5143 11.9834 12.6792C11.9216 13.0295 11.7155 13.2047 11.3858 13.2047C11.2106 13.2047 11.0663 13.1429 10.9427 13.0295C10.8294 12.9162 10.7675 12.7513 10.7675 12.5247C10.7675 12.2361 10.8087 11.9991 10.8912 11.7931C10.9839 11.587 11.0973 11.4015 11.2415 11.247C11.3858 11.0924 11.5815 10.9069 11.8288 10.6905C12.0452 10.5051 12.1998 10.3608 12.2925 10.2681C12.3853 10.1753 12.4677 10.062 12.5295 9.94865C12.6016 9.82501 12.6326 9.70136 12.6326 9.56741C12.6326 9.2995 12.5295 9.07281 12.3337 8.88734C12.138 8.70187 11.8804 8.60913 11.5609 8.60913C11.19 8.60913 10.9221 8.70187 10.7469 8.88734C10.5718 9.07281 10.4275 9.35102 10.3039 9.71166C10.1905 10.0929 9.97412 10.2784 9.6547 10.2784C9.46923 10.2784 9.30436 10.2166 9.18072 10.0826C9.04676 9.94865 8.98494 9.8044 8.98494 9.64984ZM11.4373 15.4201C11.2312 15.4201 11.056 15.3583 10.9015 15.2243C10.7469 15.0903 10.6748 14.9049 10.6748 14.6679C10.6748 14.4618 10.7469 14.2763 10.8912 14.1321C11.0457 13.9878 11.2209 13.9157 11.4373 13.9157C11.6537 13.9157 11.8288 13.9878 11.9731 14.1321C12.1174 14.2763 12.1895 14.4618 12.1895 14.6679C12.1895 14.9049 12.1174 15.0903 11.9628 15.2243C11.8082 15.3583 11.6331 15.4201 11.4373 15.4201Z" fill="white" fill-opacity="0.7"/>
<path fill-rule="evenodd" clip-rule="evenodd" d="M19.4062 16.5312V17.25C19.4062 18.4399 18.4399 19.4062 17.25 19.4062H5.75C4.56011 19.4062 3.59375 18.4399 3.59375 17.25V5.75C3.59375 4.56011 4.56011 3.59375 5.75 3.59375H17.25C18.4399 3.59375 19.4062 4.56011 19.4062 5.75V13.6562C19.4062 14.053 19.7283 14.375 20.125 14.375C20.5217 14.375 20.8438 14.053 20.8438 13.6562V5.75C20.8438 3.76661 19.2334 2.15625 17.25 2.15625H5.75C3.76661 2.15625 2.15625 3.76661 2.15625 5.75V17.25C2.15625 19.2334 3.76661 20.8438 5.75 20.8438H17.25C19.2334 20.8438 20.8438 19.2334 20.8438 17.25V16.5312C20.8438 16.1345 20.5217 15.8125 20.125 15.8125C19.7283 15.8125 19.4062 16.1345 19.4062 16.5312Z" fill="white" fill-opacity="0.7"/>
</g>
<defs>
<clipPath id="clip0_1_540">
<rect width="23" height="23" fill="white"/>
</clipPath>
</defs>
</svg>
