<svg width="22" height="22" viewBox="0 0 22 22" fill="none" xmlns="http://www.w3.org/2000/svg">
<g clip-path="url(#clip0_1_488)">
<path d="M20.1223 9.13948H13.1141V1.87776C13.1141 0.837915 12.2719 -0.00427246 11.232 -0.00427246C10.1922 -0.00427246 9.35 0.837915 9.35 1.87776V9.13948H1.87344C0.842188 9.13948 0 9.98167 0 11.0215C0 12.0614 0.842188 12.9035 1.88203 12.9035H9.35859V20.1223C9.35859 21.1621 10.2008 22.0043 11.2406 22.0043C12.2805 22.0043 13.1227 21.1621 13.1227 20.1223V12.9035H20.1309C21.1707 12.9035 22.0129 12.0614 22.0129 11.0215C22 9.98167 21.1621 9.13948 20.1223 9.13948Z" fill="#D2D2D3"/>
</g>
<defs>
<clipPath id="clip0_1_488">
<rect width="22" height="22" fill="white"/>
</clipPath>
</defs>
</svg>
