<svg width="15" height="15" viewBox="0 0 15 15" fill="none" xmlns="http://www.w3.org/2000/svg">
<path d="M12.8745 1.20001H2.6745C2.37625 1.20041 2.09034 1.31906 1.87944 1.52996C1.66855 1.74085 1.5499 2.02677 1.5495 2.32501V12.525C1.5499 12.8233 1.66855 13.1092 1.87944 13.3201C2.09034 13.531 2.37625 13.6496 2.6745 13.65H12.8745C13.1727 13.6496 13.4587 13.531 13.6696 13.3201C13.8804 13.1092 13.9991 12.8233 13.9995 12.525V2.32501C13.9991 2.02677 13.8804 1.74085 13.6696 1.52996C13.4587 1.31906 13.1727 1.20041 12.8745 1.20001ZM13.5495 12.525C13.5495 12.704 13.4784 12.8757 13.3518 13.0023C13.2252 13.1289 13.0535 13.2 12.8745 13.2H2.6745C2.49548 13.2 2.32379 13.1289 2.1972 13.0023C2.07062 12.8757 1.9995 12.704 1.9995 12.525V2.32501C1.9995 2.14599 2.07062 1.9743 2.1972 1.84772C2.32379 1.72113 2.49548 1.65001 2.6745 1.65001H12.8745C13.0535 1.65001 13.2252 1.72113 13.3518 1.84772C13.4784 1.9743 13.5495 2.14599 13.5495 2.32501V12.525Z" fill="white"/>
<path d="M11.9745 12H3.5745C3.51483 12 3.4576 12.0237 3.4154 12.0659C3.37321 12.1081 3.3495 12.1653 3.3495 12.225C3.3495 12.2847 3.37321 12.3419 3.4154 12.3841C3.4576 12.4263 3.51483 12.45 3.5745 12.45H11.9745C12.0342 12.45 12.0914 12.4263 12.1336 12.3841C12.1758 12.3419 12.1995 12.2847 12.1995 12.225C12.1995 12.1653 12.1758 12.1081 12.1336 12.0659C12.0914 12.0237 12.0342 12 11.9745 12ZM7.7745 2.54999C5.9085 2.54999 4.3125 3.15899 3.1605 4.31099L3 4.46999L4.977 6.44999L5.127 6.34949C5.91169 5.83146 6.83124 5.55531 7.7715 5.55531C8.71176 5.55531 9.63131 5.83146 10.416 6.34949L10.566 6.44999L12.5475 4.46999L12.3885 4.31099C11.2365 3.15899 9.6405 2.54999 7.7745 2.54999ZM10.512 5.87099C9.40185 5.18977 8.07704 4.94846 6.798 5.19449L5.8005 3.98249C5.78169 3.95964 5.75856 3.94072 5.73244 3.92681C5.70631 3.91289 5.6777 3.90426 5.64824 3.90141C5.61878 3.89855 5.58905 3.90153 5.56074 3.91016C5.53243 3.9188 5.5061 3.93293 5.48325 3.95174C5.4604 3.97055 5.44148 3.99368 5.42757 4.0198C5.41366 4.04593 5.40503 4.07453 5.40217 4.10399C5.39931 4.13345 5.40229 4.16319 5.41093 4.1915C5.41956 4.21981 5.43369 4.24614 5.4525 4.26899L6.3105 5.31149C5.86402 5.4414 5.43679 5.63005 5.04 5.87249L3.6435 4.47599C4.6935 3.51149 6.12 3.00299 7.776 3.00299C9.432 3.00299 10.857 3.51149 11.9085 4.47599L10.512 5.87099Z" fill="white"/>
</svg>
